<?xml version="1.0" standalone="no"?>
<!DOCTYPE svg PUBLIC "-//W3C//DTD SVG 20010904//EN"
 "http://www.w3.org/TR/2001/REC-SVG-20010904/DTD/svg10.dtd">
<svg version="1.0" xmlns="http://www.w3.org/2000/svg"
 width="24.000000pt" height="24.000000pt" viewBox="0 0 24.000000 24.000000"
 preserveAspectRatio="xMidYMid meet">

<g transform="translate(0.000000,24.000000) scale(0.100000,-0.100000)"
fill="#000000" stroke="none">
<path d="M36 184 c-3 -9 -6 -40 -6 -69 0 -53 16 -85 43 -85 7 0 4 5 -6 11 -25
15 -25 145 1 152 13 4 12 5 -4 6 -12 0 -25 -6 -28 -15z"/>
<path d="M163 154 c24 -29 22 -32 -25 -37 l-43 -4 44 -1 44 -2 -19 -22 c-11
-15 -7 -13 11 5 l30 27 -30 28 c-16 15 -22 18 -12 6z"/>
</g>
</svg>
