<?xml version="1.0" standalone="no"?>
<!DOCTYPE svg PUBLIC "-//W3C//DTD SVG 20010904//EN"
 "http://www.w3.org/TR/2001/REC-SVG-20010904/DTD/svg10.dtd">
<svg version="1.0" xmlns="http://www.w3.org/2000/svg"
 width="25.000000pt" height="25.000000pt" viewBox="0 0 25.000000 25.000000"
 preserveAspectRatio="xMidYMid meet">

<g transform="translate(0.000000,25.000000) scale(0.100000,-0.100000)"
fill="#000000" stroke="none">
<path d="M85 221 c-65 -28 -82 -118 -32 -168 39 -40 105 -40 144 0 39 38 40
105 2 142 -27 28 -82 40 -114 26z m100 -36 c34 -33 34 -87 0 -120 -53 -54
-145 -16 -145 60 0 49 36 85 85 85 25 0 44 -8 60 -25z"/>
<path d="M60 140 c0 -15 7 -20 25 -20 18 0 25 5 25 20 0 15 -7 20 -25 20 -18
0 -25 -5 -25 -20z"/>
<path d="M140 140 c0 -15 7 -20 25 -20 18 0 25 5 25 20 0 15 -7 20 -25 20 -18
0 -25 -5 -25 -20z"/>
<path d="M154 89 c-3 -6 -19 -9 -35 -7 -33 5 -39 -7 -9 -17 21 -7 60 10 60 25
0 13 -7 13 -16 -1z"/>
</g>
</svg>
